# Blender v2.78 (sub 0) OBJ File: 'halfcube.blend'
# www.blender.org
v 0.500000 -0.500000 -0.500000
v 0.500000 -0.500000 0.500000
v -0.500000 -0.500000 0.500000
v -0.500000 -0.500000 -0.500000
v 0.500000 0.500000 -0.500000
v 0.500000 0.500000 0.500000
vn 0.0000 -1.0000 0.0000
vn 0.0000 0.0000 -1.0000
vn 1.0000 -0.0000 0.0000
vn -0.7071 0.7071 -0.0000
vn -0.0000 -0.0000 1.0000
s off
f 1//1 3//1 4//1
f 4//2 5//2 1//2
f 5//3 2//3 1//3
f 6//4 4//4 3//4
f 3//5 2//5 6//5
f 1//1 2//1 3//1
f 5//3 6//3 2//3
f 6//4 5//4 4//4
